<mxfile host="app.diagrams.net" modified="2022-09-15T06:37:28.434Z" agent="5.0 (Macintosh; Intel Mac OS X 10_15_7) AppleWebKit/537.36 (KHTML, like Gecko) Chrome/105.0.0.0 Safari/537.36" etag="CDkeM9jUJiAxRBL_Nki5" version="20.3.0" type="github">
  <diagram id="7Uek06DIox_xFk53itXs" name="第 1 页">
    <mxGraphModel dx="946" dy="614" grid="1" gridSize="10" guides="1" tooltips="1" connect="1" arrows="1" fold="1" page="1" pageScale="1" pageWidth="850" pageHeight="1100" math="0" shadow="0">
      <root>
        <mxCell id="0" />
        <mxCell id="1" parent="0" />
        <mxCell id="r9V39w_v0_8B1iMPTabU-22" value="" style="rounded=0;whiteSpace=wrap;html=1;" vertex="1" parent="1">
          <mxGeometry x="80" y="70" width="480" height="250" as="geometry" />
        </mxCell>
        <mxCell id="r9V39w_v0_8B1iMPTabU-12" style="edgeStyle=orthogonalEdgeStyle;rounded=0;orthogonalLoop=1;jettySize=auto;html=1;exitX=0.5;exitY=1;exitDx=0;exitDy=0;" edge="1" parent="1" source="r9V39w_v0_8B1iMPTabU-1" target="r9V39w_v0_8B1iMPTabU-3">
          <mxGeometry relative="1" as="geometry" />
        </mxCell>
        <mxCell id="r9V39w_v0_8B1iMPTabU-1" value="word document schema data" style="rounded=1;whiteSpace=wrap;html=1;" vertex="1" parent="1">
          <mxGeometry x="220" y="90" width="170" height="40" as="geometry" />
        </mxCell>
        <mxCell id="r9V39w_v0_8B1iMPTabU-3" value="render engine" style="rounded=1;whiteSpace=wrap;html=1;" vertex="1" parent="1">
          <mxGeometry x="220" y="180" width="170" height="40" as="geometry" />
        </mxCell>
        <mxCell id="r9V39w_v0_8B1iMPTabU-7" value="web pc" style="rounded=1;whiteSpace=wrap;html=1;" vertex="1" parent="1">
          <mxGeometry x="100" y="270" width="90" height="30" as="geometry" />
        </mxCell>
        <mxCell id="r9V39w_v0_8B1iMPTabU-8" value="h5" style="rounded=1;whiteSpace=wrap;html=1;" vertex="1" parent="1">
          <mxGeometry x="220" y="270" width="90" height="30" as="geometry" />
        </mxCell>
        <mxCell id="r9V39w_v0_8B1iMPTabU-9" value="mini program" style="rounded=1;whiteSpace=wrap;html=1;" vertex="1" parent="1">
          <mxGeometry x="335" y="270" width="90" height="30" as="geometry" />
        </mxCell>
        <mxCell id="r9V39w_v0_8B1iMPTabU-11" value="......" style="rounded=1;whiteSpace=wrap;html=1;" vertex="1" parent="1">
          <mxGeometry x="450" y="270" width="90" height="30" as="geometry" />
        </mxCell>
        <mxCell id="r9V39w_v0_8B1iMPTabU-17" value="" style="endArrow=classic;html=1;rounded=0;exitX=0.5;exitY=1;exitDx=0;exitDy=0;entryX=0.5;entryY=0;entryDx=0;entryDy=0;" edge="1" parent="1" source="r9V39w_v0_8B1iMPTabU-3" target="r9V39w_v0_8B1iMPTabU-7">
          <mxGeometry width="50" height="50" relative="1" as="geometry">
            <mxPoint x="400" y="330" as="sourcePoint" />
            <mxPoint x="450" y="280" as="targetPoint" />
          </mxGeometry>
        </mxCell>
        <mxCell id="r9V39w_v0_8B1iMPTabU-18" value="" style="endArrow=classic;html=1;rounded=0;exitX=0.5;exitY=1;exitDx=0;exitDy=0;entryX=0.5;entryY=0;entryDx=0;entryDy=0;" edge="1" parent="1" source="r9V39w_v0_8B1iMPTabU-3" target="r9V39w_v0_8B1iMPTabU-8">
          <mxGeometry width="50" height="50" relative="1" as="geometry">
            <mxPoint x="315" y="230" as="sourcePoint" />
            <mxPoint x="155" y="280" as="targetPoint" />
          </mxGeometry>
        </mxCell>
        <mxCell id="r9V39w_v0_8B1iMPTabU-19" value="" style="endArrow=classic;html=1;rounded=0;exitX=0.5;exitY=1;exitDx=0;exitDy=0;entryX=0.5;entryY=0;entryDx=0;entryDy=0;" edge="1" parent="1" source="r9V39w_v0_8B1iMPTabU-3" target="r9V39w_v0_8B1iMPTabU-9">
          <mxGeometry width="50" height="50" relative="1" as="geometry">
            <mxPoint x="315" y="230" as="sourcePoint" />
            <mxPoint x="275" y="280" as="targetPoint" />
          </mxGeometry>
        </mxCell>
        <mxCell id="r9V39w_v0_8B1iMPTabU-21" value="" style="endArrow=classic;html=1;rounded=0;entryX=0.5;entryY=0;entryDx=0;entryDy=0;" edge="1" parent="1" target="r9V39w_v0_8B1iMPTabU-11">
          <mxGeometry width="50" height="50" relative="1" as="geometry">
            <mxPoint x="310" y="220" as="sourcePoint" />
            <mxPoint x="390" y="280" as="targetPoint" />
          </mxGeometry>
        </mxCell>
      </root>
    </mxGraphModel>
  </diagram>
</mxfile>
